<svg id="Camada_1" data-name="Camada 1" xmlns="http://www.w3.org/2000/svg" viewBox="0 0 311.33 130.4"><defs><style>.cls-1,.cls-2,.cls-3{fill:#fff;}.cls-2{font-size:74.31px;}.cls-2,.cls-3{font-family:ArrusBT-Roman, Arrus BT;}.cls-3{font-size:13px;}</style></defs><title>logo_emaj_branco</title><path class="cls-1" d="M87.81,70.22a.78.78,0,0,0-.54-.29H87a1.74,1.74,0,0,1-.28,0l-.17,0a.62.62,0,0,0,.09-.17,1.19,1.19,0,0,0,.07-.49,1.37,1.37,0,0,0,0-.33,2.07,2.07,0,0,0-.1-.32,1.34,1.34,0,0,0-.4-.55,1.21,1.21,0,0,0-.76-.28l0-.37c0-.2,0-.41-.06-.61L85.24,66q-.08-.74-.15-1.48c-.09-.77-.19-1.53-.3-2.29s-.19-1.59-.23-2.28c0-.33,0-.66-.06-1s0-.82-.07-1.22c-.07-.82-.17-1.64-.25-2.27S84,54,83.86,53.21c-.06-.35-.11-.69-.16-1l0-.26c0-.32-.09-.63-.14-.94-.09-.58-.16-1.16-.23-1.73l-.07-.58c-.11-.79-.23-1.53-.37-2.26l-.1-.46,0-.18c0-.51-.09-1.06-.18-1.71,0-.29-.07-.58-.09-.87V43c0-.25,0-.49-.08-.73a1.42,1.42,0,0,0,.13-.2,2.65,2.65,0,0,0,.2-.43,1.61,1.61,0,0,0,.07-.36,2.46,2.46,0,0,0,0-.69h0a.47.47,0,0,0,.38-.2,3.34,3.34,0,0,0,.54-1.33,4.09,4.09,0,0,0,0-1.36,3.07,3.07,0,0,0-.2-.7,3.22,3.22,0,0,0-.34-.63,1.9,1.9,0,0,0-.46-.44,1.08,1.08,0,0,0,.09-.29,1.78,1.78,0,0,0,.11-.82,1.62,1.62,0,0,0-.47-1,1,1,0,0,0-.7-.29,1,1,0,0,0-.48.09l-.19.13-.1,0-.07,0a.82.82,0,0,0-.28-.06H79.7c-.33,0-.65,0-1,0l-.51,0H78.1l-.37,0-.61-.07a8,8,0,0,0-.89-.15l-.54,0h-.16a2.67,2.67,0,0,0-.19-.26l-.18-.23a6.64,6.64,0,0,1-.66-1.26,4.4,4.4,0,0,1-.2-.85c0-.27,0-.53,0-.8s0-.69,0-1,0-.66,0-1,0-.7,0-1,0-.53,0-.79c0-.45.05-.89.06-1.34v-.91c0-.09,0-.18,0-.28v-.12l.09-.06a1.18,1.18,0,0,0,.23-.18,1.42,1.42,0,0,0,.34-.7,4.93,4.93,0,0,0,.18-.49,3.69,3.69,0,0,0,.13-.86A2.25,2.25,0,0,0,75.2,20a2.14,2.14,0,0,0-.24-.36,1.77,1.77,0,0,0,.3-.19A2.93,2.93,0,0,0,75.7,19l.38-.45a2.61,2.61,0,0,0,.26-.4,1.44,1.44,0,0,0,.1-.23l0-.12a6.23,6.23,0,0,0,.18-.61c0-.17.07-.34.1-.51s0-.17,0-.25h0l-.38.14a.28.28,0,0,1-.09.1l-.11,0a.47.47,0,0,1,0,.1l-.06.08v0l0,.08a5.85,5.85,0,0,1-.18.6,2.23,2.23,0,0,1-.13.31,5.32,5.32,0,0,1-.68.7l0,0a4.62,4.62,0,0,0,.29-.82,3.12,3.12,0,0,1-.39.36,2.24,2.24,0,0,1-.29.19,1.77,1.77,0,0,1-.28.14,1.13,1.13,0,0,1-.24.06.31.31,0,0,1-.13.13.35.35,0,0,1-.17.14,1.07,1.07,0,0,1-.78-.07,1.77,1.77,0,0,1-.4-.19l-.27-.21,0,0-.06,0-.48-.26L71.54,18l-.27-.14a1.65,1.65,0,0,1-.29-.19l-.24-.21a3.93,3.93,0,0,1-.38-.43l-.08-.08-.14-.18-.25-.29a.19.19,0,0,1,0-.17v0s0,0,0,0h0s0,0,0,0a.15.15,0,0,1,.09,0,.18.18,0,0,1,.15.08l.16.21.1.11.1.13a2,2,0,0,0,.19.19,2,2,0,0,0,.4.21l.36.12.17.05.13,0a2.84,2.84,0,0,1,.45.17,2.76,2.76,0,0,0,.56.1,2.46,2.46,0,0,1,.35.05l.27.05h.15a4.45,4.45,0,0,0,.49-.14,3.68,3.68,0,0,0,.5-.2c.2-.11.39-.23.58-.35l.14-.09.07-.07.07-.06h-.22l-.25,0a1.92,1.92,0,0,1-.47-.16,2.21,2.21,0,0,1-.41-.23l-.24-.2,0,0-.14.17a1,1,0,0,1-.17.16.31.31,0,0,1-.33,0,.68.68,0,0,1-.21-.21c-.11-.16-.21-.33-.3-.49a2,2,0,0,1-.2-.41c0-.08,0-.16-.06-.24a.87.87,0,0,1,0-.22.26.26,0,0,1,0,0l-.12-.1-.32-.16-.5-.16a.21.21,0,0,1-.15-.25.2.2,0,0,1,.19-.16h0l.48.15a1.68,1.68,0,0,1,.63.27l.12.1.1.07h.06l.11,0,0,0,.15.11.06.09c0-.13-.05-.26-.08-.39s0-.14,0-.21,0-.21-.08-.31,0-.22-.06-.32,0-.26-.06-.39-.08-.35-.11-.53a1.43,1.43,0,0,1,0-.26.81.81,0,0,1,.05-.25.74.74,0,0,1,.1-.16.52.52,0,0,1,.19-.15.66.66,0,0,1,.22-.19.35.35,0,0,1,.14,0h.1l.2,0a.19.19,0,0,1,.13.23l0,0L74,12a.42.42,0,0,1,.08-.2.25.25,0,0,1,.2-.09.19.19,0,0,1,.11,0l0,0a.59.59,0,0,1,.27-.2.78.78,0,0,1,.24,0,.4.4,0,0,1,.2.06h.23l.2.05a.28.28,0,0,1,.12-.19.26.26,0,0,1,.15,0,.27.27,0,0,1,.23.13l.34.57.21.22a2.33,2.33,0,0,1,.32.4,3.1,3.1,0,0,1,.28.64,3,3,0,0,1,.09.44.5.5,0,0,1,.07.34.71.71,0,0,1-.07.22,1.93,1.93,0,0,1,0,.27,1.71,1.71,0,0,1-.1.28,1.29,1.29,0,0,1-.17.27.47.47,0,0,1-.23.17h-.1a.19.19,0,0,1-.22-.13.57.57,0,0,1,0-.22c0-.09,0-.17,0-.26a3.83,3.83,0,0,0,0-.52c0-.12,0-.24-.05-.36h0a.47.47,0,0,1-.17-.22l-.13-.3v0a4.21,4.21,0,0,0-.3-.58l-.15-.14-.19-.11-.07,0h-.15c0,.14.1.29.13.44s.1.44.16.65.06.22.09.32a2.45,2.45,0,0,1,.08.37,1.75,1.75,0,0,1,0,.41,2.86,2.86,0,0,1,0,.37,1.22,1.22,0,0,1-.06.19.6.6,0,0,1-.09.17l-.06,0,0,.14a.28.28,0,0,1-.14.2.14.14,0,0,1-.15.06h-.09a.32.32,0,0,1-.19-.14.38.38,0,0,1,0-.25c0-.11,0-.22,0-.32a5.36,5.36,0,0,0,0-.72c0-.17,0-.33,0-.5a4.13,4.13,0,0,0-.14-.44,2.37,2.37,0,0,0-.24-.39l-.13-.16a2.28,2.28,0,0,0-.34-.35,2,2,0,0,0-.33-.18l-.08,0h0l0,0v.05a1.72,1.72,0,0,0,0,.2l0,.25a5.05,5.05,0,0,0,.15.6l.11.35c0,.11.08.21.11.32h0a2.12,2.12,0,0,1,.3.9,1.09,1.09,0,0,1-.08.53l0,0,.12.09.26.17.23.11.17.05h0l.34.08h.31l.35,0h0l.52-.14.48-.17.41-.14.08-.05.26-.18.07,0,.25-.17.06-.05.16-.14a1.37,1.37,0,0,0,.24-.36,1.52,1.52,0,0,0-.08-1.18,9.68,9.68,0,0,0-.44-.94,7.33,7.33,0,0,0-.48-.77,3.43,3.43,0,0,0-.65-.73,7.05,7.05,0,0,0-.78-.52l-.18-.11a6.52,6.52,0,0,0-.65-.36,1.84,1.84,0,0,0-.57-.18h-.26l-.37,0a4.16,4.16,0,0,0-1,.21,5.84,5.84,0,0,0-.87.38l-.1.05a5.55,5.55,0,0,0-.79.5,8.38,8.38,0,0,0-.92.78,4.23,4.23,0,0,0-.78,1,2.86,2.86,0,0,0-.22.54A1.24,1.24,0,0,0,69,14a2,2,0,0,0,0,.79l0,.09h0V15l0,.16,0,.37,0,.17c-.07.39-.13.79-.18,1.18l0,.39c0,.26-.07.52-.1.78s0,.51-.07.76l0,.5c-.06.56-.13,1.12-.2,1.68l-.05.42,0,.25-.25,2c-.08.71-.17,1.42-.24,2.14l-.06.62c-.06.54-.11,1.08-.18,1.62s-.14,1-.25,1.48l-.06.26c-.08.37-.16.74-.23,1.11s-.15.8-.23,1.21L65.36,32l-.58,0a1.1,1.1,0,0,0-.16-.3.65.65,0,0,0-.24-.2,1.2,1.2,0,0,0-.49-.32,1.08,1.08,0,0,0-.32-.06.52.52,0,0,0-.27-.13h0a.56.56,0,0,0-.42.13l-.12.13-.18.19a1.8,1.8,0,0,0-.57.85,1.11,1.11,0,0,1-.15.18,2.71,2.71,0,0,0-.53.76,3.16,3.16,0,0,0-.23.71,5.11,5.11,0,0,0-.12.77,7.1,7.1,0,0,0,.1,1.63,4.58,4.58,0,0,0,.12.46,2.31,2.31,0,0,0,.11.32c.06.15.13.28.21.42a.68.68,0,0,0-.11.16,2.63,2.63,0,0,0-.3.85,2,2,0,0,0,0,.75,1.71,1.71,0,0,0,.3.64c0,.16,0,.33,0,.5l-.06,0-.2.14-.32.23c-.3.21-.59.44-.88.68l-.6.49-.84.68.06,0h0l-.08,0c-.47.37-.93.73-1.4,1l-.59.35-.24.14c-.33.2-.66.4-1,.62a.61.61,0,0,0-.23.28,3.12,3.12,0,0,1-.58.22l-.34,0-.15,0-.18-.09a.48.48,0,0,0-.22-.06,2.15,2.15,0,0,0-.3-.25l-.11-.08-.11-.08a4,4,0,0,0-.33-.23.81.81,0,0,0-.45-.13.87.87,0,0,0-.33.07,1.4,1.4,0,0,0-.46.32c-.13.12-.26.24-.39.35l-.15.13c-.12.1-.25.21-.39.31l-.72.14a5.66,5.66,0,0,1-.91.08,3.32,3.32,0,0,1-.45-.07,1.89,1.89,0,0,1-.28-.14l-.12-.1,0-.24c0-.22,0-.45-.07-.67l0-.16c-.05-.3-.1-.6-.14-.89s-.05-.68-.06-1c0-.17,0-.34,0-.51s0-.16,0-.24l.16-.09.17-.1.08-.05.23,0,.29-.06a1.6,1.6,0,0,0,.55-.27,1.93,1.93,0,0,0,.26-.25,1.76,1.76,0,0,0,.26-.53,2.92,2.92,0,0,0,.13-.71l0-.18v-.08a3.84,3.84,0,0,0,.06-.42,3.77,3.77,0,0,0,0-.45c0-.12,0-.23,0-.33v-.13a2.21,2.21,0,0,1,0-.37,3.08,3.08,0,0,1,.19-.66c0-.08.07-.17.1-.26l.07-.19.06-.12.05-.1.07-.16a1.53,1.53,0,0,0,.08-.24,1.49,1.49,0,0,0,0-.28c0-.17,0-.34,0-.51s0-.23,0-.35v-.21c0-.22,0-.43,0-.64s0-.37.05-.55a3.6,3.6,0,0,0,0-.58l0-.16a.52.52,0,0,0,.12-.23.89.89,0,0,1,.1-.21l0-.06a2.24,2.24,0,0,0,.41-.75,2.68,2.68,0,0,0,.08-.67,1.87,1.87,0,0,0,0-.21,2.74,2.74,0,0,0-.05-.69,2.25,2.25,0,0,0-.31-.76c-.1-.15-.2-.3-.3-.45s-.22-.32-.32-.48a.66.66,0,0,0-.17-.39v-.06a3.84,3.84,0,0,0,0-.78,2.81,2.81,0,0,0-.1-.45,3.37,3.37,0,0,0-.17-.41L50,26c-.07-.15-.12-.26-.17-.36a1.69,1.69,0,0,0-.26-.37,1.78,1.78,0,0,0-.87-.54l-.6-.18-.07,0a4.77,4.77,0,0,0-.77-.18l-.34,0h-.26a.32.32,0,0,0-.15,0h-.14a4.05,4.05,0,0,0-.6.08l-.31.1-.28.08a2,2,0,0,1-.35,0l-.27,0-.33-.16a3.51,3.51,0,0,0-.75-.33,2,2,0,0,0-.38-.05c-.08-.12-.17-.24-.26-.36a3.84,3.84,0,0,0-.51-.48,3.18,3.18,0,0,0-1-.53,2.91,2.91,0,0,0-.9-.15h-.27a.87.87,0,0,0-.24,0,2.2,2.2,0,0,0-.79.34,3.83,3.83,0,0,0-.61.5,3.29,3.29,0,0,0-.67,1,5.9,5.9,0,0,0-.24.67,4.33,4.33,0,0,0-.12.74,5.24,5.24,0,0,0,.24,2.13l-.11.17a3,3,0,0,0-.3.44,2.67,2.67,0,0,0-.24.68,3.84,3.84,0,0,0,0,1.44,4.71,4.71,0,0,0,.45,1.21,3.91,3.91,0,0,0,.27.5c.06.09.13.17.19.26s-.11.25-.16.38-.13.38-.19.57a4.27,4.27,0,0,0-.16,1.32,3.6,3.6,0,0,0,.13.9,3,3,0,0,0,.61,1.13c.22.26.52.43.75.68l.09.17c.08.24.15.49.23.73a1.71,1.71,0,0,0,.21.45,1.73,1.73,0,0,0,.41.43,1.54,1.54,0,0,0,.46.23l.11,0,0,.3c-.09.53-.14,1.07-.2,1.61a8.9,8.9,0,0,1-.4,1.49c-.1.27-.2.53-.29.8s-.18.52-.27.78a4.09,4.09,0,0,1-.27.54c-.17.21-.37.4-.56.59a6.76,6.76,0,0,1-.56.52l.13-.1c-.24.19-.47.39-.69.6L37,47l-.19.11-.95.55-.4.23-.4.23c-.3.17-.59.34-.88.53a7.45,7.45,0,0,0-1,.78,10.6,10.6,0,0,0-.8.85,9.8,9.8,0,0,0-.64.85c-.18.27-.36.55-.53.82a8.11,8.11,0,0,0-.5,1c-.23.53-.45,1.08-.67,1.62l-.07.17,0,.08c-.25.63-.47,1.26-.67,1.86l-.12.37a.88.88,0,0,0-.22.07,5.19,5.19,0,0,0-.53.24,4.32,4.32,0,0,0-.93.64,4.78,4.78,0,0,0-.75.82l0,.06-.2.33a3.76,3.76,0,0,0-.34.8,3.45,3.45,0,0,0-.12,1.61c.07.35.15.69.24,1,.05.18.1.37.17.55a1.54,1.54,0,0,0,.18.35,3.47,3.47,0,0,0-.24.45c-.16.33-.3.67-.44,1l-.41,1-.06.15-.09.21-.09.21-.22.52c-.21.5-.39,1-.54,1.47l-.21.61-.27.75-.36,1-.1.28a8.65,8.65,0,0,0-.31,1.22c-.07.37-.13.75-.17,1.12s-.06.71-.07,1.07v.39c0,.26,0,.53,0,.79s0,.63,0,.94v.22c0,.37,0,.73,0,1.1s0,1,0,1.49v.76c0,.66,0,1.33.07,1.92l0,.33c0,.33,0,.67,0,1v.27l-.07,0a1.54,1.54,0,0,0-.67-.15,2.82,2.82,0,0,0-1.25.3,2.07,2.07,0,0,0-.64.45,2.13,2.13,0,0,0-.34.54,2.44,2.44,0,0,0-.17,1.27,4.24,4.24,0,0,0,.22.95,2.18,2.18,0,0,0,.41.69,1.66,1.66,0,0,0,.82.51,4.66,4.66,0,0,0,.38,1.32,10.3,10.3,0,0,0,.51,1l.16.39L23,92.63a.64.64,0,0,0,.11.19l-.06.28-.06.27A7.74,7.74,0,0,0,22.77,95a5.23,5.23,0,0,0,0,.58,2.92,2.92,0,0,0,.16.66,3,3,0,0,0,.14.33l0,.09.22.45c.17.32.35.64.55.95l.18.29.35.55a4.45,4.45,0,0,0,.67.79,2.38,2.38,0,0,0,.46.3l.18.08,0,.17,0,.11-.12.09-.1.08c-.13.11-.26.23-.38.35a5.49,5.49,0,0,0-.58.71l-.55.78,0,.07-.22.33a2.48,2.48,0,0,0-.18.32.57.57,0,0,0,0,.41.45.45,0,0,0,.34.43l1.19.17a7.4,7.4,0,0,0,.87.06h.48c.33.72.65,1.45,1,2.18l.12.27c.11.25.23.51.33.76s.26.66.37,1,.3.85.46,1.27l.09.25.25.67c.18.49.38,1,.59,1.45l.25.6c.13.31.26.62.4.93l.43.87c.17.37.34.74.5,1.11l.23.53.2.44a.69.69,0,0,0,0,.17c.07.2.14.39.22.58l0,.13a1.37,1.37,0,0,0,.28.56,1.86,1.86,0,0,0,1.36.41h.44l.83,0H35l.7,0H36c.58,0,1.15,0,1.72,0,.75,0,1.51-.14,2.24-.24l.42-.05.34,0h2c.63,0,1.27,0,1.9,0H45l.67,0h.14L47,118l1.08,0h1.07c.72,0,1.48-.08,2.33-.16s1.51-.16,2.25-.27q.84-.12,1.67-.28h1a1.25,1.25,0,0,0,.88-.36,1.15,1.15,0,0,0,.25-.83,11.75,11.75,0,0,0-.12-1.17c0-.36-.09-.69-.11-1,0-.56-.05-1.16,0-1.95v-.21c0-.36,0-.71,0-1.06s0-.46,0-.69v-.68c0-.29,0-.59,0-.88,0-.63-.06-1.28-.11-1.9l0-.33V106c-.05-.68-.11-1.34-.19-2-.06-.47-.13-.93-.2-1.39l-.12-.78c0-.19-.06-.38-.09-.57s-.07-.39-.09-.56l0-.25,0-.15c0-.24-.07-.48-.11-.72s-.08-.43-.13-.64a2.82,2.82,0,0,0,0-.53,5,5,0,0,0-.32-1.07l-.06-.15L55.78,97l-.06-.19c0-.22-.09-.45-.14-.68l0-.22,0-.1c-.07-.36-.14-.71-.23-1.06l-.05-.22,0-.25v-.15a.42.42,0,0,0-.08-.22c0-.17,0-.34-.08-.51a7.58,7.58,0,0,0-.27-1.1l-.09-.25-.13-.66A16.2,16.2,0,0,0,54,89.34a.57.57,0,0,0-.32-.35l0-.19-.16-.67.08-.35a3.54,3.54,0,0,0,.1-.79c0-.12,0-.24,0-.36v-.23c0-.39-.06-.77-.1-1.09s-.09-.67-.15-1l0-.21c-.05-.32-.11-.64-.18-.95l0-.14L53,82.42c-.11-.47-.22-.94-.32-1.41v-.12a.49.49,0,0,0-.05-.17l-.15-.63-.15-.64c-.09-.39-.17-.79-.26-1.19l-.13-.59a.4.4,0,0,0-.15-.22,6.73,6.73,0,0,1-.05-.76,7.81,7.81,0,0,1,.09-.89A7.23,7.23,0,0,1,52,75v-.09h0c.07-.19.13-.36.18-.53l0-.1,0-.08c.08-.27.17-.55.24-.82l.17-.64.11-.41.18-.69,0-.13c.2-.69.39-1.36.52-2,.07-.36.13-.72.18-1.09a10.75,10.75,0,0,0,.08-1.18c0-.36,0-.72,0-1.09s0-.73,0-1.09,0-.7,0-1.05v-.15a2.11,2.11,0,0,1,0-.22,3.49,3.49,0,0,1,.2-.41l.18-.35a4.6,4.6,0,0,0,.64-.76,4.3,4.3,0,0,0,.61-.68,6.37,6.37,0,0,0,.66-1.4l.06-.17a5.13,5.13,0,0,0,.23-.78,4,4,0,0,0,.07-.76A6.33,6.33,0,0,0,56.31,57a5.7,5.7,0,0,0-.36-1.19l-.18-.44h.12l.29,0a2,2,0,0,0,.63-.09,1.84,1.84,0,0,0,1-1.61,3.93,3.93,0,0,0-.14-1.31,6.59,6.59,0,0,0-.34-1l.51-.34c.28-.2.55-.41.82-.62s.55-.43.78-.63l.07-.07.27-.22.38-.33.12-.11.06-.06.22-.12,0,.13,0,.24c-.1.64-.24,1.34-.44,2.14-.09.35-.17.7-.24,1l0,.08-.07.32-.16.71c-.09.37-.16.75-.23,1.13s-.13.7-.21,1l0,.19-.22.94-.08.31c-.06.25-.13.5-.17.75-.11.6-.18,1.22-.25,1.82v.07c0,.43-.1.87-.16,1.3,0,.14-.07.27-.1.41l-.12.58c-.07.25-.13.49-.18.73-.11.46-.23.91-.36,1.35a7,7,0,0,0-.28,1.06v.11l0,.21c0,.15,0,.26,0,.38S57,66,57,66a1,1,0,0,0-.31.26,1.3,1.3,0,0,0-.5.46,1.68,1.68,0,0,0-.17.33,2.14,2.14,0,0,0-.1.26c0,.06,0,.12,0,.18a1.31,1.31,0,0,0,0,.42,1.37,1.37,0,0,0,.09.38l.06.13a.66.66,0,0,0-.06.13,1,1,0,0,0-.06.22l-.07.1a.82.82,0,0,0-.1.35.86.86,0,0,0,.07.39,2.79,2.79,0,0,0,.13.29l.1.18.06.11a5,5,0,0,0,.42.61,3.55,3.55,0,0,0,.52.51,7.85,7.85,0,0,0,1.1.77,7.34,7.34,0,0,0,1.35.7l.12.06.43.22a3.17,3.17,0,0,0,.73.22,7,7,0,0,0,.72.09h.2a1.19,1.19,0,0,0,.32.55L62,74a.76.76,0,0,0,.15.19,1.18,1.18,0,0,0,.85.28l.13,0,.26,0,.25,0a1.36,1.36,0,0,0,.73-.55,1.42,1.42,0,0,0,.18-.32,1.47,1.47,0,0,0,.11-.32,5.47,5.47,0,0,0,1-.23,5.38,5.38,0,0,0,.94-.4c.34-.19.68-.39,1-.6a5.37,5.37,0,0,0,.82-.6c.13-.13.26-.25.39-.39l.18-.23.1-.13.19-.23.07-.08.08-.1.23-.28a1.92,1.92,0,0,0,.27-.44L70,69.4a.4.4,0,0,0-.05-.63.59.59,0,0,0-.13-.17.51.51,0,0,0-.18-.11.12.12,0,0,0,0-.07,1.9,1.9,0,0,0,.09-.53,1.81,1.81,0,0,0-.05-.43,2.75,2.75,0,0,0-.1-.35l0-.08a2.68,2.68,0,0,0-.12-.29,2.92,2.92,0,0,0-.19-.33l-.15-.7c-.11-.5-.2-1-.29-1.51l-.11-.61-.05-.26c-.12-.64-.24-1.27-.37-1.91L68,60.31c-.08-.37-.16-.74-.24-1.11-.21-1-.44-2-.67-3l0-.14L67,55.79c-.07-.44-.14-.89-.21-1.33l0-.1c-.07-.45-.14-.91-.22-1.36s-.19-1-.29-1.55l0-.25-.2-.94-.18-.82c-.06-.33-.12-.67-.17-1l-.09-.49-.09-.49q-.12-.66-.23-1.32l.09-.06.89-.69a10.15,10.15,0,0,1,.91-.63c.24-.15.48-.31.71-.48l.23-.17c.31-.22.61-.47.9-.71l.3-.25.42-.34.79-.65a4.5,4.5,0,0,0,.64-.63,2.09,2.09,0,0,0,.38-.83,3.91,3.91,0,0,0,.07-.42c0-.2.06-.36.08-.51l0-.15,0-.18c0-.24.05-.48.06-.71l0-.29,0-.15a3.44,3.44,0,0,0,.06-.66c0-.27,0-.55-.08-.82l0-.16c0-.25-.06-.43-.06-.62a4.39,4.39,0,0,1,0-.61v-.08l.43,0,.61.08c.72.1,1.36.17,2,.22h.35l.7.07.7.09.14,0,.17,0,.15,0c.65.09,1.38.2,2.09.27l.55.06a.71.71,0,0,0-.16.2,3.32,3.32,0,0,0-.41,1,4.18,4.18,0,0,0-.08,1c0,.2,0,.39,0,.58a4.32,4.32,0,0,0,.31,1.23.53.53,0,0,0,.14.19,1,1,0,0,0-.07.2c0,.1,0,.21-.07.31a1.2,1.2,0,0,0,.26.94l.11.17c-.14.72-.29,1.42-.43,2.13l-.14.7c-.07.32-.12.63-.18,1l-.09.48c-.08.45-.18.9-.29,1.35s-.28,1.1-.43,1.65l-.13.5-.18.65c-.15.53-.29,1.05-.41,1.58s-.27,1.3-.38,1.93l-.06.35c-.08.44-.17.88-.26,1.32l-.19.91c-.08.43-.17.85-.27,1.28-.15.59-.3,1.18-.46,1.76-.23.86-.45,1.72-.65,2.59s-.31,1.47-.44,2.22-.25,1.35-.38,2a3.75,3.75,0,0,0-.06.54l-.08,0-.16,0a1.05,1.05,0,0,0-.58.32,1.19,1.19,0,0,0-.2.3,2,2,0,0,0-.19.91,2,2,0,0,0,.08.59.61.61,0,0,0-.43.51,3.23,3.23,0,0,0,.54,1.84,3.34,3.34,0,0,0,.61.81,3.79,3.79,0,0,0,.46.41,2.79,2.79,0,0,0,.42.24l.11.06.32.17.23.14.12,0c.37.2.77.41,1.18.59a5.14,5.14,0,0,0,1,.35l.29,0a1.14,1.14,0,0,0,0,.59,1.35,1.35,0,0,0,.42.72,1.4,1.4,0,0,0,.64.29,1.29,1.29,0,0,0,.28,0,1.73,1.73,0,0,0,.85-.24,1.19,1.19,0,0,0,.5-.55,1.26,1.26,0,0,0,.11-.52,1,1,0,0,0,.25,0,5.38,5.38,0,0,0,1.12-.13,13.15,13.15,0,0,0,2.14-.69,7.07,7.07,0,0,0,1-.49l.48-.26.07,0,.27-.14a7.25,7.25,0,0,0,.92-.61,2.63,2.63,0,0,0,.7-.83,1.67,1.67,0,0,0,.24-.66A.87.87,0,0,0,87.81,70.22ZM22.14,85.82l-.26-.11c0-.09,0-.18,0-.27s0-.36.07-.55l.33,0,.15,0a1,1,0,0,1,.17.14,4.77,4.77,0,0,1,.37.66l0,.07a.82.82,0,0,0,.15.25v.1a.42.42,0,0,0-.18.07l-.17.09a1.21,1.21,0,0,0-.36-.3A1.86,1.86,0,0,0,22.14,85.82Zm1.1,3.77,0-.15c0-.22-.1-.43-.16-.65s-.11-.32-.16-.48l-.08-.21a.62.62,0,0,0,.14-.25l.29-.16a4.56,4.56,0,0,0,0,.51c0,.23,0,.46.06.69s.05.55.07.82v.1Zm26.55-57h.27l0,.15c0,.09,0,.18,0,.26a2.76,2.76,0,0,0,0,.33c0,.06,0,.13,0,.19v.15c0,.24.05.49.06.74,0,0,0,.1,0,.14s0-.14-.05-.22v-.2a9.28,9.28,0,0,0-.17-.92,3.25,3.25,0,0,0-.12-.39l0-.08-.06-.13Zm-.58,3.67h.23l.11,0h.17a1,1,0,0,0-.12.26c-.05.16-.1.32-.14.48a4.18,4.18,0,0,0-.1.59c0,.13,0,.27-.07.41a5.48,5.48,0,0,0-.06.58,3.17,3.17,0,0,0,0,.36,2.1,2.1,0,0,0-.08.32c0,.15,0,.24-.07.33a2.07,2.07,0,0,1-.09.19,2.7,2.7,0,0,1-.33.38,2.52,2.52,0,0,1-.45.3l-.53.22-.13.05-.09,0-.23.08-.31.08-.18,0h-.14L46,40.93h-.09l-.1,0,0-.05a3.62,3.62,0,0,0-.17-.44,3.24,3.24,0,0,0-.21-.45,2.6,2.6,0,0,0-.63-.76L44.45,39l-.17-.11-.16-.11-.2-.19-.11-.26c0-.11-.09-.22-.14-.33l-.14-.29,0-.09a7,7,0,0,0-.4-.91l0-.07,0-.07a2.86,2.86,0,0,0-.24-.5,1.39,1.39,0,0,0-.31-.36l.09,0H43l.24,0,.36-.06H45l.38,0h0a3.81,3.81,0,0,0,.69-.08c.23,0,.43,0,.64-.06h.31l.45,0a1.84,1.84,0,0,1,.29.06.51.51,0,0,0,0,.2l0,.11v.18a1,1,0,0,1,0,.17l-.24,0-.17,0a.39.39,0,0,0-.31.15l-.08.07a.36.36,0,0,0-.14.21.35.35,0,0,0,0,.28.34.34,0,0,0,.2.16l.15.08.16.15a1,1,0,0,0,.24.13l.12,0,.12,0a.51.51,0,0,0,.24-.06l.19-.1a.43.43,0,0,0,.12-.11.45.45,0,0,0,.07-.13,1.29,1.29,0,0,0,.16-.44,2.7,2.7,0,0,0,0-.28,1,1,0,0,0,0-.17,1.2,1.2,0,0,0,.3.05Zm-4.69-2.91-.5,0-.37,0h-.12l-.4,0h-.74l-.51,0a.81.81,0,0,0,0-.2A1,1,0,0,1,42,33L42,33a2.59,2.59,0,0,1,.47-.15,1.47,1.47,0,0,1,.28,0h1.37l.22,0,.09,0,.07,0,.29.09.51.15a1.52,1.52,0,0,0,.35.06l.35,0a1.52,1.52,0,0,0,.46-.06,1.74,1.74,0,0,0,.42-.21l.16-.1.24-.1a2.68,2.68,0,0,0,.32-.14l.08,0h.11l.43,0s0,0,0,.08a1.14,1.14,0,0,0,0,.22l0,.14,0,.13,0,.14.06.19c0,.11.07.23.09.34s0,.32,0,.48l-.26,0h-.76l-.71,0h-.67l-.44,0h-.11a.21.21,0,0,0-.18.21.2.2,0,0,0,.19.2h.16l.32,0h.47c.25,0,.46.06.68.07H48l.19,0,.18,0,.23,0-.06.24a2.32,2.32,0,0,0,0,.33l-.18-.06-.12,0-.12,0-.24-.08-.16-.05-.22-.06-.15,0a3.22,3.22,0,0,0-.45-.07h-.23l-.39,0H46l-.45,0h-.33a5.53,5.53,0,0,0-.65,0H44a.56.56,0,0,0-.22-.25l-.08-.06a.74.74,0,0,0-.24-.13,1.43,1.43,0,0,0-.33-.09,3.09,3.09,0,0,1-.57-.11l-.22-.13L42.17,34h.07A2.88,2.88,0,0,0,42.6,34l.38,0h.3l.13,0h.2l.28,0c.25,0,.45,0,.66,0a.25.25,0,0,0,.17-.09.29.29,0,0,0,.07-.2A.27.27,0,0,0,44.52,33.38Zm-2-2.13h0Zm6.37-.5h0v0ZM44.6,25.92a2,2,0,0,0,.2-.25l.16-.11a.27.27,0,0,0,.09-.14,2.36,2.36,0,0,0,.58-.14,4.66,4.66,0,0,1,.53-.18l.32,0h0l.1,0,.55.08.23.06.18.05.17,0a3.11,3.11,0,0,1,.46.25,2.52,2.52,0,0,1,.3.29,3,3,0,0,1,.29.51l.05.11h-.37l-.13,0a1.73,1.73,0,0,1-.25-.16L47.85,26l-.21-.16a1,1,0,0,0-.36-.15,1.21,1.21,0,0,0-.28,0l-.19,0a1.39,1.39,0,0,0-.4.15c-.13.07-.24.16-.37.22l-.3.08a1.12,1.12,0,0,0-.3.14,3.2,3.2,0,0,1-.3.2h-.1l-.06,0a1.46,1.46,0,0,1-.22-.14l-.29-.26,0,0Zm2,2.28h0Zm-4.06-1.6c.32-.06.64-.1,1-.18h0l.09,0,.29-.08.06.07.09.15a3.63,3.63,0,0,1,.13.51v0h-.13a2.48,2.48,0,0,0-.69.07,2.09,2.09,0,0,0-.64.28,1.75,1.75,0,0,0-.4.33h0c0-.08,0-.15,0-.23a2.15,2.15,0,0,0,0-.39c0-.15,0-.3-.05-.45h0Zm-1.35,3.17.16-.13.22-.19a1.13,1.13,0,0,0,.2.2.92.92,0,0,0,.64.17,1.4,1.4,0,0,0,.52-.18,1.42,1.42,0,0,0,.45-.35,4.43,4.43,0,0,1,.3-.37l0,0,.07,0h.15l.38.1.16,0,.17,0a1,1,0,0,0,.26,0,.79.79,0,0,0,.37-.2,1,1,0,0,0,.51.11c.32,0,.49-.27.66-.52a1.19,1.19,0,0,0,.57.25,2.21,2.21,0,0,0,.39,0,1.22,1.22,0,0,0,.51-.18.53.53,0,0,0,.13-.11h.07l.23,0-.1,0a1.31,1.31,0,0,0-.24.12l-.21.17a1.69,1.69,0,0,0-.39.67h-.29a1.57,1.57,0,0,0-.49.12l-.29.14-.12,0a1.41,1.41,0,0,0-.29-.14,1,1,0,0,0-.44,0,1.62,1.62,0,0,0-.65.24c-.17.1-.32.22-.49.31l-.07,0h0c-.13,0-.26-.09-.39-.13a1.71,1.71,0,0,0-.38-.08.76.76,0,0,0-.38.1,1,1,0,0,0-.42.65c-.06.2-.11.41-.18.61h-.26a1.69,1.69,0,0,1-.33-.08L41.76,31a2.67,2.67,0,0,1-.31-.33,1.63,1.63,0,0,1-.15-.26,3,3,0,0,1-.11-.4s0-.06,0-.09S41.2,29.83,41.21,29.76Zm-2.48-3.29a5.36,5.36,0,0,1,.14-.58c0-.11.1-.21.16-.32l.22-.3a3.15,3.15,0,0,1,.29-.31,2.2,2.2,0,0,1,.34-.26,4.62,4.62,0,0,1,.79-.26h.16l.14,0,0,0a3,3,0,0,0-.87.66,4.42,4.42,0,0,0-.37.47,3,3,0,0,0-.25.42c-.15.33-.26.68-.39,1l-.2.47,0,0a5,5,0,0,1-.11-.56A3.47,3.47,0,0,1,38.72,26.47ZM39.21,35h-.08a5.47,5.47,0,0,1,0-.84,4.42,4.42,0,0,1,.12-.65l0,.17V34c0,.23,0,.46,0,.68A1.72,1.72,0,0,0,39.21,35Zm0-2.93a2.47,2.47,0,0,1-.29-.27,1.76,1.76,0,0,1-.15-.25,3.83,3.83,0,0,1-.21-.59,4.25,4.25,0,0,1,0-.44v-.13c0-.08,0-.15,0-.23s0-.28.06-.42a.34.34,0,0,0,.16-.12l.14-.24c0,.17,0,.34,0,.51s0,.37,0,.56a2.57,2.57,0,0,0,.28.9,3.33,3.33,0,0,0,.48.68l.07.08-.49.08A.34.34,0,0,0,39.21,32.07Zm1.2,6c-.09-.27-.18-.54-.29-.8a2.13,2.13,0,0,0-.06-.37.46.46,0,0,0-.05-.13l-.1-.2-.09-.14c-.11-.15-.19-.24-.26-.33l-.12-.15.07,0h.81l.19,0,.31,0,.31,0,.37,0h0a5.84,5.84,0,0,1-.14.62c-.06.22-.14.44-.21.66s-.16.48-.25.71l-.16.42h-.13l-.1,0ZM29.92,58.26c.06-.24.13-.47.21-.69.16-.47.34-.93.52-1.39.42-1.1.79-2,1.16-2.75.07-.14.15-.28.23-.43s.17-.26.26-.38l.09-.13c.24-.33.49-.66.75-1a10.24,10.24,0,0,1,1.55-1.34l.64-.37.06,0c.2-.11.4-.23.6-.35.47-.29.93-.6,1.39-.92l.35-.23.13-.09c.46-.29.84-.54,1.22-.83a4.59,4.59,0,0,0,.81-.77,6.93,6.93,0,0,0,.62-.94A5.65,5.65,0,0,0,41,44.54c.11-.35.22-.7.32-1.05s.14-.54.2-.81a6.38,6.38,0,0,0,.17-.82c0-.37.07-.75.1-1.12,0-.61,0-1.27,0-2v-.25c0-.16,0-.3,0-.42l.05-.27c0-.08,0-.16,0-.23a.55.55,0,0,0,0,.19l0,.17a6.41,6.41,0,0,0,.12.75,2.7,2.7,0,0,0,.13.41,2.8,2.8,0,0,0,.26.68,3.11,3.11,0,0,0,.18.27c.12.16.22.28.32.4l.57.65a4.59,4.59,0,0,1,.45.7l.15.34.08.18.15.34c.13.3.26.61.38.92s.14.34.22.51a2.4,2.4,0,0,0,.25.44,1.17,1.17,0,0,0,.43.36.93.93,0,0,0,.39.09H46a1.49,1.49,0,0,0,.73-.39v.27c0,.37.07.73.13,1.09s.08.51.11.77l.05.37,0,.11a6.28,6.28,0,0,1,.09.89,3.41,3.41,0,0,1-.11.62l-.07.18a6.24,6.24,0,0,0-.23.73,2.87,2.87,0,0,0-.05.3l0,.18,0,.08c-.38.41-.78.79-1.16,1.13l-.7.66-.18.17-.17.16-.35.33c-.26.24-.5.5-.75.75l-.06.06-.06.06-.12.12-.35.36c-.2.21-.41.41-.63.6a9.69,9.69,0,0,1-.78.62l.06,0-.26.16-.31.19L40,56l-.06,0a9.06,9.06,0,0,1-1.57.86,5.09,5.09,0,0,1-.81.17h-.14a.44.44,0,0,0-.21-.18l-.18-.08-.13-.12a2.67,2.67,0,0,1-.15-.25,6.9,6.9,0,0,1-.33-.85c0-.11-.07-.22-.09-.33a4.1,4.1,0,0,0-.19-.58c-.05-.12-.11-.24-.17-.35a1.59,1.59,0,0,0-.24-.32,1.57,1.57,0,0,0-.3-.26,1.2,1.2,0,0,0-.63-.18,1.15,1.15,0,0,0-.61.18,1.63,1.63,0,0,0-.51.54l-.19.22c-.12.14-.18.22-.24.31a4.55,4.55,0,0,0-.3.49,6.48,6.48,0,0,0-.39.93l-.05.14-.16.45-.18.53c-.08.21-.16.42-.25.62l0,.1-.1.24a.84.84,0,0,0-.06.3l-.32,0-.38,0h-.12l-.33,0-.47,0-.27,0ZM32.2,89.15a19,19,0,0,0,.38,2.52c.17.85.38,1.6.57,2.25s.35,1.32.51,2l.07.27c.16.66.31,1.32.45,2l.13.72c0,.58,0,1.09,0,1.54l0,.4c0,.69.09,1.43.1,2.14,0,.42,0,.83,0,1.25s0,.8,0,1.2c0,.73.08,1.46.14,2.17v.19c.05.51.1,1,.14,1.51l0,.58c-.1-.22-.2-.43-.31-.64l-.55-1.09-.26-.52-.92-1.83-.31-.68-.15-.34-.37-.82c-.33-.73-.61-1.4-.87-2.07l.23-.25.09-.09.22-.23a3.8,3.8,0,0,0,.65-1.24l.06-.15a.62.62,0,0,0,0-.56.49.49,0,0,0,.12-.52A.45.45,0,0,0,32,98.6a1.36,1.36,0,0,0-.35-.07h-.39a4,4,0,0,1-.83-.11,1.91,1.91,0,0,1-.29-.15,7.38,7.38,0,0,1-.85-.8l-.09-.09.09-.11a2.43,2.43,0,0,0,.22-.4,3.21,3.21,0,0,0,.28-1.14,3.87,3.87,0,0,0-.12-1.1,4,4,0,0,0-.29-.87c-.08-.18-.17-.34-.27-.51L29,92.95l0-.06a6,6,0,0,1-.33-.69c-.1-.27-.2-.54-.28-.82a5.53,5.53,0,0,1-.14-.71v-.95c0-.38,0-.76,0-1.13v-.22c0-.27,0-.55,0-.82s0-.57,0-.86,0-.82,0-1.23c0-.61.06-1.21.11-1.88l0-.33a.52.52,0,0,0,0-.21c.08-.68.15-1.37.22-2.07l.05-.49c.06-.58.12-1.15.18-1.73V78.6l0-.15c0-.24.07-.48.1-.72s.07-.69.09-1,0-1,.07-1.46l0-.64,0-.36v-.72c0-.26,0-.45,0-.64s0-.29.07-.43a14,14,0,0,1,.67-2.15l.14-.27,0-.07.12-.26c.2-.41.4-.83.59-1.25l.05-.12.13-.28.35-.74c.27-.52.55-1,.83-1.55l.19-.35a13,13,0,0,1,1.25-2l.18-.16.07,0,.36-.06a2.77,2.77,0,0,1,.43,0l.35.1.24.65.17.44.23.58a10.05,10.05,0,0,1,.3,1c.07.31.15.63.23.94l.05.22.07.27.16.65c.18.78.32,1.59.41,2.2s.19,1.2.26,1.71A6.4,6.4,0,0,1,37,73.14a6.89,6.89,0,0,1-.49,1.11l-.07.12-.05.09-.09.15c-.1.15-.21.31-.32.45a7.83,7.83,0,0,0-.5.8l-.16.29a1.45,1.45,0,0,0-.13.38c0,.06,0,.11,0,.17a6,6,0,0,0-.64,1.05l-.27.5-.12.22c-.23.42-.44.8-.63,1.2s-.3.72-.44,1.09-.31.87-.42,1.26a13,13,0,0,0-.4,2.29A32.2,32.2,0,0,0,32.2,89.15ZM27.32,60.54a3.39,3.39,0,0,1,.2-.63,4.81,4.81,0,0,1,.49-.77l.09-.09a.19.19,0,0,0,.06.13l.17.17.21.11a1.18,1.18,0,0,0,.33.08H29l.32,0,.44,0h.15l.7,0a6.29,6.29,0,0,0,.65,0l.76,0h.22a1.22,1.22,0,0,0,.42-.11l-.13.09-.15.07-.5.21a6,6,0,0,1-1.11.19H30.5a4.41,4.41,0,0,0-.58,0,1.47,1.47,0,0,0-.8.31,3,3,0,0,0-.48.57,1.07,1.07,0,0,0-.25.89.74.74,0,0,0,.14.33.63.63,0,0,0,.14.13h-.1a6.85,6.85,0,0,1-.83.13,6.54,6.54,0,0,1-.36-.94,3.52,3.52,0,0,1-.1-.5A3.9,3.9,0,0,1,27.32,60.54Zm-2.1,37.12a2.47,2.47,0,0,0-.1.44c-.15-.2-.29-.42-.45-.66s-.26-.53-.38-.8-.21-.52-.3-.77a3.84,3.84,0,0,1-.06-.5,8.48,8.48,0,0,1,.05-1c0-.39.12-.78.2-1.15l.13-.54c.09-.34.17-.67.22-1a6.51,6.51,0,0,0,0-.77c0-.26,0-.51,0-.77,0-.48-.06-1-.13-1.63-.06-.42-.13-1-.16-1.55l0-.37v-.24c0-.62,0-1.15,0-1.66,0-.26,0-.53,0-.79l0-.37v-.15c0-.1,0-.21,0-.31,0-.27,0-.55,0-.82s0-.65-.06-1c0-.54-.08-1.05-.1-1.57s-.06-1.25-.06-1.87c0-.26,0-.53,0-.79v-.13c0-.33.05-.66.07-1s0-.45.05-.67l0-.34,0-.3c0-.2,0-.4.05-.61a17.83,17.83,0,0,1,.27-1.78,15.91,15.91,0,0,1,.58-1.79l.06-.18.32-.84c.16-.41.31-.82.46-1.24l.17-.51.06-.17.12-.36.26-.77.11-.32.17-.52.17-.51,0-.09c.1-.3.2-.61.33-.89a1.26,1.26,0,0,1,.27-.07L28,64l.27-.06.37-.09.07,0,.1,0c.3-.08.6-.18.9-.27a1.2,1.2,0,0,0-.17.29l-.09.19-.15.3-.08.16,0,.09-.08.18q-.34.75-.65,1.52l-.61,1.49-.08.21-.08.21c-.09.19-.17.37-.25.56a3.63,3.63,0,0,0-.21.7L27,69.8l0,.07-.1.23,0,.1c-.09.21-.17.42-.24.63-.14.4-.23.8-.3,1.07l-.11.5-.11.5-.05.22c-.06.27-.12.53-.17.81s-.11.72-.14,1.14,0,.56,0,.84v.21c0,.22,0,.43,0,.65l0,.32a2.78,2.78,0,0,0,0,.53,1.36,1.36,0,0,0,.09.32,1,1,0,0,0,.1.15l.07.08.08.07.14.06.14,0a.56.56,0,0,0,.3-.07,1.31,1.31,0,0,0,.18-.14,1.19,1.19,0,0,0,.21-.33,2.18,2.18,0,0,0,.12-.32,1.88,1.88,0,0,0,.08-.27c.06-.31.09-.63.12-.94l0-.27c0-.18.06-.35.1-.53v.08h0l0,.27,0,.15c0,.11,0,.22.05.33l0,.13c0,.43,0,.84,0,1.25s0,.56,0,.84l0,.34,0,.55c0,.21,0,.4,0,.59,0,.38,0,.76-.07,1.14v.14c0,.39-.07.77-.09,1.16l0,.21,0,.23,0,.24v.08c-.06.34-.11.67-.14,1v.15c0,.23-.06.4-.08.58a21.12,21.12,0,0,0-.15,2.36v.41c0,.34,0,.69-.06,1l0,.2V89c0,.21,0,.41,0,.62s0,.44,0,.66v.2c0,.17,0,.34,0,.51v.36c0,.25,0,.5,0,.74v.23c0,.3,0,.6.06.9v.15c0,.17,0,.34,0,.51s0,.4,0,.6a4.66,4.66,0,0,1-.07.64l0,0h0l0,0,0,.07a3.29,3.29,0,0,1-.13.41c-.08.2-.17.4-.26.59l-.06.1-.06.1-.39.26A2,2,0,0,0,25.22,97.66ZM29,102.15l-.6.36-.4.21c-.27,0-.55.06-.82.07l-.37,0h-.33l-.32,0-.47,0h-.09l-.12,0-.24,0,.08-.14c.28-.33.58-.64.89-1a3.68,3.68,0,0,1,.46-.37,4.56,4.56,0,0,1,.58-.2l.1,0,.43-.13a6.63,6.63,0,0,0,1-.36l.36-.16c.23-.11.47-.21.71-.31a7.07,7.07,0,0,1,1-.31h0l.25-.06,0,.11,0,.08-.09.17a4.75,4.75,0,0,1-.52.59l-.1.11-.29.32-.12.13a1.1,1.1,0,0,0-.25.27l-.2.2A3.59,3.59,0,0,1,29,102.15Zm6.16,13.92H34l-.18-.33c-.11-.25-.2-.44-.28-.63l-.24-.62-.15-.38-.07-.17c-.11-.27-.22-.55-.32-.82-.24-.65-.47-1.34-.69-2.05-.1-.33-.2-.66-.32-1s-.27-.71-.4-1.06a15.72,15.72,0,0,0-.64-1.57c-.13-.27-.28-.54-.42-.81l-.21-.6c-.26-.75-.47-1.53-.65-2.25a.7.7,0,0,0,.12-.44.67.67,0,0,0,0-.19,2.08,2.08,0,0,0,.37-.21l0,.15q.2.54.44,1.08l.22.53c.2.48.41,1,.64,1.44s.6,1.15.86,1.61l.11.2c.3.55.59,1.1.87,1.67s.52,1.22.77,1.89a18.16,18.16,0,0,0,.86,2.05.46.46,0,0,0,.11.15c0,.32,0,.59,0,.85s.05.32.08.48l0,.08,0,.12a3.5,3.5,0,0,0,.15.57l.1.23ZM49.54,93.83c-.07.23-.14.46-.2.7l-.17.61c-.1.3-.2.6-.29.9l0,.11,0,.07,0,.08,0,.08h0l0,.07a11,11,0,0,1-.41,1,7.46,7.46,0,0,1-.37.68l-.13.23a11.19,11.19,0,0,0-.54,1,6.49,6.49,0,0,0-.39,1.13,15.67,15.67,0,0,0-.43,2.21c-.09.88-.16,1.67-.2,2.44,0,.34,0,.67,0,1v.34c0,.44,0,.88,0,1.31s0,.63-.07.94-.07.59-.11.89l0,.11,0,.09a13.51,13.51,0,0,1-.44,1.85l-.08.24c-.23.66-.46,1.31-.68,2-.15.43-.26.76-.4,1.06l-.13.26c-.53-.05-1-.08-1.4-.08a4.21,4.21,0,0,0-.65.07l-.46.06h-.2a.81.81,0,0,0,.12-.2A2.87,2.87,0,0,0,42,113.7a10.42,10.42,0,0,0-.31-1.49l0-.13c0-.17-.09-.35-.13-.52a13.06,13.06,0,0,1-.14-1.63c0-.57,0-1.11,0-1.65a20,20,0,0,1,.28-2.51l.06-.35c.18-.34.37-.69.54-1,.4-.8.74-1.55,1-2.29.23-.54.43-1.09.63-1.64l.15-.4c.28-.75.55-1.5.8-2.26.12-.36.22-.71.32-1.08s.12-.49.17-.74l0-.08.05-.25.06-.29c.05-.2.1-.4.14-.6s.07-.35.1-.52,0-.16,0-.23a1.76,1.76,0,0,0,0-.27l.11.06a2.08,2.08,0,0,0,.59.37,1.88,1.88,0,0,0,.76.14h.07a4.56,4.56,0,0,0,1.11-.2,8.77,8.77,0,0,0,1.23-.4Zm5.89,7.26v.08c0,.15,0,.3.05.45.06.37.13.74.2,1.12,0,.21.09.41.13.62l0,.08,0,.21.06.28c.2,1.15.32,2.29.4,3.15a16.24,16.24,0,0,1,.1,1.7c0,.55,0,1.09,0,1.64,0,.33-.06.65-.09,1l0,.18c0,.34-.07.69-.09,1s0,.84,0,1.3v.68l-.07,0a7.71,7.71,0,0,0-1.12.11l-.12,0-.11,0-.13,0h-.16c-.47,0-1,.07-1.42.09H53a16.05,16.05,0,0,0-1.65.21l-.31,0-.28,0v-.22c0-.31,0-.62.05-.93l0-.66,0-.31c0-.32,0-.64.07-1a10,10,0,0,1,.19-1.33l.13-.63.13-.63,0-.11c0-.18.07-.37.12-.55s.1-.38.16-.57c.39-1,.85-2,1.29-3,.16-.33.32-.65.49-1l.23-.44.21-.44,0-.1c.16-.32.32-.65.5-1a6,6,0,0,1,.55-.72C55.15,101.44,55.3,101.27,55.43,101.09ZM54,96.42l.15,0a1.91,1.91,0,0,0,.31,0c.06.36.14.72.24,1.09s.14.51.22.76l.05.18c.09.29.16.58.23.87l0,.22c0,.1-.1.2-.17.31a6.13,6.13,0,0,1-.7.87,6.55,6.55,0,0,0-1,1.35c-.14.25-.27.5-.4.75l-.07.13-.08.16c-.12.24-.25.48-.39.72l-.1.19a21.09,21.09,0,0,0-1,2c-.15.35-.29.71-.43,1.07a8.6,8.6,0,0,0-.37,1.18l0,.23,0-.41v-.18c0-.47-.07-.93-.09-1.4l0-.61v-.08c0-.52-.06-1.06-.06-1.59,0-.27,0-.54,0-.81a4.16,4.16,0,0,0,.34-.53l.07-.12.34-.6.06-.09,0-.08c.08-.14.16-.28.23-.42a6.94,6.94,0,0,0,.3-.66c.09-.23.16-.47.23-.71s.14-.47.21-.7.21-.57.32-.85.28-.65.41-1l.11-.29.09-.14.08-.13h0a4.16,4.16,0,0,1,.45-.63,1.22,1.22,0,0,1,.23-.09ZM52.39,91a9.65,9.65,0,0,0,.44-.91v.09c.08.31.2.62.32.91l0,.1c.1.25.21.49.33.73l.12.71.09.51.09.5c0,.16.06.31.09.47a.73.73,0,0,0-.24.09.84.84,0,0,0-.22.18l-.06.06a1.16,1.16,0,0,0-.13.17,5.13,5.13,0,0,0-.33.55,5.69,5.69,0,0,0-.37,1l-.11.35-.18.57-.3.58,0,.09c-.18.34-.36.69-.51,1.06s-.29.7-.44,1.05-.19.42-.29.63l-.17.37-.15.34v-.28c0-.32,0-.64,0-1,0-.63.08-1.23.13-1.84,0-.32.05-.63.08-1s.05-.43.08-.62l0-.28c0-.26.09-.51.14-.76l.23-1,.2-.92,0-.21,0-.1,0-.17,0-.1a2.9,2.9,0,0,0,.06-.37.67.67,0,0,0,0-.26l.22-.27A8.28,8.28,0,0,0,52.39,91Zm-.58-7,0,.2,0,.16A10.57,10.57,0,0,1,52,85.7c0,.44,0,.91,0,1.42,0,.19,0,.38-.07.57a5.37,5.37,0,0,1-.13.55,4.85,4.85,0,0,1-.27.63c-.1.18-.2.35-.31.52l-.09.14-.08.12a7.36,7.36,0,0,1-.59.75,7.14,7.14,0,0,1-1.26.87,5.3,5.3,0,0,1-.93.42,3.29,3.29,0,0,1-.53,0h-.09a4.34,4.34,0,0,1-.84-.18,4.58,4.58,0,0,1-.72-.41,6.19,6.19,0,0,1-.87-.86,5.35,5.35,0,0,1-.51-.75c-.16-.31-.32-.62-.47-.94-.22-.47-.43-1-.65-1.61-.09-.27-.18-.54-.27-.81l0-.08-.12-.36,0-.13,0-.1a1.35,1.35,0,0,0-.15-.36.29.29,0,0,0-.24-.13.31.31,0,0,0-.29.25.61.61,0,0,0,0,.18v.29c0,.16,0,.32,0,.48a7.48,7.48,0,0,0,.16,1.15,12.58,12.58,0,0,0,.71,2.1c.29.7.61,1.37.95,2.06l.19.38c0,.15,0,.31,0,.47v.2a11.62,11.62,0,0,1-.17,1.38,27.08,27.08,0,0,1-.73,3c-.15.47-.33.93-.51,1.35s-.39.92-.6,1.37l-.06.14c-.28.61-.57,1.28-.86,1.94l-.26.61-.28.61-.46,1,0,.07,0,.07c-.11.24-.22.49-.31.74s-.23.67-.33,1l0,.08v-.07l-.11-.51c-.11-.59-.21-1.18-.3-1.77l-.07-.44,0-.26c0-.29-.1-.58-.13-.87s-.08-.72-.1-1.07v-.21c0-.34,0-.68-.07-1l0-.32c0-.26,0-.53-.06-.8,0-.74,0-1.48,0-2.35v-.16c0-.58.1-1.12.19-1.7s.24-1.23.36-1.75l.12-.47.05-.21,0-.18c.07-.26.13-.52.19-.79l.18-.75.1-.29.1-.29c.08-.24.16-.47.25-.7l.05-.12a1.76,1.76,0,0,0,.16-.65.4.4,0,0,0-.41-.39.37.37,0,0,0-.35.23l-.26.64q-.25.63-.48,1.27c-.18.49-.35,1-.52,1.49l-.23.67c-.26.73-.51,1.46-.74,2.2a21.65,21.65,0,0,0-.55,2.16,22.37,22.37,0,0,0-.31,2.33l-.06.66-.06.63,0-.28c0-.4-.09-.8-.15-1.19-.12-.74-.26-1.48-.41-2.22L36,96c-.24-1.21-.45-2.11-.7-2.94l-.11-.37-.16-.55-.1-.41,0-.16-.16-.93-.08-.47c-.07-.42-.15-.84-.23-1.25a26.35,26.35,0,0,1-.06-4v-.22l0-.19c.06-.5.12-.93.19-1.31a16,16,0,0,1,.45-1.76l.05-.15c.09-.28.18-.53.27-.77l.19-.48a1.29,1.29,0,0,1,.24-.1,1.53,1.53,0,0,1,.34.29c.1.13.19.26.28.4l.16.24c.16.24.34.47.52.69a7.25,7.25,0,0,0,.58.66l.18.17.14.13.27.26.25.26.34.35a5.59,5.59,0,0,0,.6.51,6.08,6.08,0,0,1,.5.43l.1.08.07.06.07.06a.62.62,0,0,0,.15.12.31.31,0,0,0,.15,0h0a.39.39,0,0,0,.27-.13.37.37,0,0,0,.09-.28.75.75,0,0,0,0-.13,2.14,2.14,0,0,0-.09-.2,1.63,1.63,0,0,0-.16-.24,6,6,0,0,0-.39-.47l-.11-.13c-.37-.44-.74-.92-1.16-1.51-.19-.26-.36-.54-.54-.82s-.28-.49-.41-.75L38,80c0-.12-.09-.22-.13-.32a4.36,4.36,0,0,1-.12-.45,3.07,3.07,0,0,1,0-.44,3.58,3.58,0,0,1,.1-.55l0-.14.33.23a8.31,8.31,0,0,0,1.32.78l.36.15.55.24c.21.1.42.21.63.33l.17.28,0,.07.28.47.11.18.2.33c.18.3.37.61.57.9a9.18,9.18,0,0,0,1.5,1.58,6.2,6.2,0,0,0,1,.64,9.55,9.55,0,0,0,1,.43c.19.08.38.14.57.19A2.33,2.33,0,0,0,47,85a3,3,0,0,0,.5,0,3.75,3.75,0,0,0,1-.35,4.41,4.41,0,0,0,.93-.59,5,5,0,0,0,.71-.84c.2-.29.39-.58.57-.88l.35-.59.09-.09.14-.15,0,.19c0,.29.1.58.16.88l.08.45.1.54Zm2.57-33.87v0a5,5,0,0,0-.27.44l-.08.16a1.24,1.24,0,0,0-.09.28l0-.13-.34-.77,0-.08c-.07-.18-.15-.35-.24-.53l-.15-.29a.84.84,0,0,0-.19-.27.32.32,0,0,0-.2-.08.34.34,0,0,0-.28.16.37.37,0,0,0,0,.33l.11.33.05.15,0,.07,0,.12.09.3.1.3.06.18c.12.35.23.7.33,1.06,0,.17.07.34.1.5a.63.63,0,0,0,0,.37l.1.55.06.46,0,.16c0,.27.08.55.11.83a7.39,7.39,0,0,1,.05,1c0,.56,0,1.11-.06,1.67,0,.27,0,.53,0,.8s0,.42,0,.63v.45l-.05,0a3.35,3.35,0,0,1-.53.25l-.26.07h-.26l-.17-.06-.19-.13a3.24,3.24,0,0,1-.31-.38,2.93,2.93,0,0,1-.22-.44,9.29,9.29,0,0,1-.21-1l0-.18c-.07-.34-.13-.67-.19-1l0-.1-.05-.25c-.05-.29-.11-.58-.17-.87a2.22,2.22,0,0,0-.41-1,.57.57,0,0,0-.4-.21H50a.44.44,0,0,0-.23.12.51.51,0,0,0-.13.18,1.15,1.15,0,0,0-.11.53,4.79,4.79,0,0,1,0,.5c0,.17,0,.34,0,.51a1.19,1.19,0,0,0-.16.46l0,.11a3.59,3.59,0,0,0-.07.44,8.35,8.35,0,0,0,0,1.06v.09c0,.32,0,.64.06,1,0,.12,0,.24-.07.36a8.3,8.3,0,0,1-.55,1.27c-.11.19-.22.36-.34.54a4.37,4.37,0,0,1-.39.48l-.24.22a4,4,0,0,0-.34.32l-.07.1-.07,0-.46.21-.33.15a4.39,4.39,0,0,0-.51.28l-.14.1a.89.89,0,0,0-.23.26.51.51,0,0,0,.1.59.43.43,0,0,0,.31.13l.14,0,.15-.06h.21l.23,0,.1.07a4.48,4.48,0,0,1,.29.54l.15.32a1.81,1.81,0,0,0,.38.47,2.14,2.14,0,0,0,1.22.56l.29,0h.08a1.39,1.39,0,0,0,.28,0l.09,0a1.54,1.54,0,0,0,.61-.32,2.7,2.7,0,0,0,.74-1A2.44,2.44,0,0,0,51,65l0,.1c.07.22.14.44.2.66.12.59.19,1.21.25,1.73a14.64,14.64,0,0,1,.11,1.83,7,7,0,0,1-.2,1.46l0,.13,0,.09c0,.12-.07.25-.1.37l0,.18,0,.1,0,.21a2,2,0,0,1-.11.3l-.14.19a4.53,4.53,0,0,1-.53.41l-.4.29a7.51,7.51,0,0,0-.78.75l-.22.23,0,.05a4.16,4.16,0,0,1-.5.41l-.17.1a.51.51,0,0,0-.19.21.32.32,0,0,0,0,.3.38.38,0,0,0,.28.21h.1a2.81,2.81,0,0,1,.4.07l.16,0,.38.28a3,3,0,0,1,.33.31,3.75,3.75,0,0,1,.36.49,4.72,4.72,0,0,1,.28.84c.11.46.21.93.29,1.4l0,.09a7.64,7.64,0,0,1,.17,1.29,1.41,1.41,0,0,1,0,.15,3.56,3.56,0,0,1-.19.45,6,6,0,0,1-.43.57l-.08.09-.14.18-.16.22-.21.28c-.1.13-.21.25-.32.36a3.21,3.21,0,0,1-.52.43,6.83,6.83,0,0,1-.78.4,8.17,8.17,0,0,1-.8.27,2.74,2.74,0,0,1-.63.09,3.38,3.38,0,0,1-.57-.12A8.73,8.73,0,0,1,45,83a7.18,7.18,0,0,1-1-.85,8,8,0,0,1-.63-.78c-.22-.31-.43-.64-.62-1l-.05-.09L42.5,80a3.14,3.14,0,0,0-.34-.44,10.62,10.62,0,0,0-.69-.94,3.54,3.54,0,0,0-1-.81l-.34-.2-.2-.11A7.45,7.45,0,0,0,39,77a9.92,9.92,0,0,0-1-.32l-.38-.23-.48-.29-.09-.12.12-.27A9.79,9.79,0,0,0,38,74.76l.46,0a5.12,5.12,0,0,1,.79.1L40,75l.64.22a5.88,5.88,0,0,1,.71.33,8.45,8.45,0,0,1,1.29,1.11l.23.25.41.43a3.74,3.74,0,0,0,.3.29,1.43,1.43,0,0,0,.27.18.71.71,0,0,0,.32.09.37.37,0,0,0,.18,0,.5.5,0,0,0,.27-.27A.65.65,0,0,0,44.5,77c-.07-.15-.16-.29-.24-.43l-.12-.19c-.14-.24-.3-.47-.46-.69l-.07-.09a17,17,0,0,1-1-1.63,12.64,12.64,0,0,1-.65-1.41c-.18-.48-.34-1-.48-1.51a13.84,13.84,0,0,1-.35-2.7v-.31A4.84,4.84,0,0,0,41,66.91c-.14-.56-.68-.68-1.16-.78l-.08,0-.2,0a3,3,0,0,1-.53-.25,5,5,0,0,1-.41-.33.61.61,0,0,0,.24,0l.68,0a4.33,4.33,0,0,0,1.71-.33l1.07-.42.76-.3a9.25,9.25,0,0,0,.85-.42L44,64a4.07,4.07,0,0,0,.94-.64,5.75,5.75,0,0,0,.76-.88,8.52,8.52,0,0,0,.61-1.05A6.8,6.8,0,0,0,47,59.27c.05-.44.08-.9.1-1.34l0-.44a8.07,8.07,0,0,1,.23-1.61,6.33,6.33,0,0,1,.45-1.09l.1-.17.07-.05a1.43,1.43,0,0,0,.18-.17.36.36,0,0,0,.06-.26.29.29,0,0,0-.11-.19.28.28,0,0,0-.17-.07.36.36,0,0,0-.28.16l-.09.1-.05.05a.9.9,0,0,1-.16.14l-.14.06a1.6,1.6,0,0,0-.41.26,2.4,2.4,0,0,0-.25.3l-.17.2c-.13.13-.22.22-.3.32l-.17.25-.16.26-.06.11c-.15.24-.28.43-.42.61A5.68,5.68,0,0,0,44.61,58c-.18.42-.34.79-.53,1.15a6.43,6.43,0,0,1-.69.9,4.68,4.68,0,0,1-.42.38,3.09,3.09,0,0,1-.37.25l-.25.14a5.44,5.44,0,0,0-.73.46l-.27.23-.05,0a7.54,7.54,0,0,1-.66.52,2.45,2.45,0,0,1-.44.17,4.79,4.79,0,0,1-1,.1,5,5,0,0,1-.5,0,3.67,3.67,0,0,1-.49-.11,5.22,5.22,0,0,1-.8-.33,2.63,2.63,0,0,1-.34-.29,2.74,2.74,0,0,1-.26-.35L36.79,61l0-.1c.14-.35.29-.7.44-1a5,5,0,0,1,.45-.72,4.08,4.08,0,0,1,.52-.29l.29-.15a8.53,8.53,0,0,0,.94-.55l.56-.37.22-.15c.35-.23.69-.46,1-.69A20.8,20.8,0,0,0,43,55.64a8.58,8.58,0,0,0,.61-.61l.09-.09.78-.81.21-.21.13-.14c.27-.28.54-.55.8-.84l.6-.7.13-.16.06-.08.27-.32.22-.24c.23-.25.49-.54.72-.83s.56-.77.87-1.23l.14-.2,0-.07c.2-.29.39-.58.58-.88s.23-.38.33-.58h0l.41,0,.28.05c.27.09.53.19.8.3a3.08,3.08,0,0,0,1.07.3l.31,0,.09,0,.18,0a.59.59,0,0,0,.39-.47,1.41,1.41,0,0,0,0-.26s0,0,0-.07,0-.22,0-.33a2.55,2.55,0,0,0,0-.3,2.92,2.92,0,0,1,.36.32,3.37,3.37,0,0,1,.36.55c.08.15.15.3.21.46a4.45,4.45,0,0,1,.2.6c0,.18.06.35.08.54a5.63,5.63,0,0,1,0,.64Q54.39,50,54.39,50.13Zm10.9-16.27.15,0h.07l.36.09.23.06A9.41,9.41,0,0,0,66,35.12c0,.13,0,.27,0,.4v.07c0,.23,0,.45,0,.68a4.21,4.21,0,0,1-.23.74,4.55,4.55,0,0,1-.44.75l-.26.32v0a3.06,3.06,0,0,0,.2-.38,3.33,3.33,0,0,0,.22-.8,3.73,3.73,0,0,0,0-.62A7,7,0,0,0,65.28,35,6.61,6.61,0,0,0,65,33.78ZM62,34.2a3.25,3.25,0,0,1,.17-.5l.07-.11a.87.87,0,0,0,.3.3,2,2,0,0,0,.35.18,1.17,1.17,0,0,0,.45.08h.08a1.38,1.38,0,0,0,.49-.12l0,.06a4.94,4.94,0,0,1,.35.85,4,4,0,0,1,.12.64c0,.26,0,.53,0,.79a3.45,3.45,0,0,1-.07.67l0,.16-.11-.1a1.71,1.71,0,0,0-.61-.29,1.18,1.18,0,0,0-.29,0l-.25,0-.13,0a.64.64,0,0,0-.39.15l-.28.06-.09,0c0-.11-.1-.23-.14-.36a7.06,7.06,0,0,1-.15-1.35A5.57,5.57,0,0,1,62,34.2Zm-1.61,12-.57.43-.27.21-.06,0-.09.07-.33.25-.32.21-.38.06-.19,0a3.13,3.13,0,0,1-.43,0l-.24-.22-.18-.16a5.81,5.81,0,0,1-.55-.56,4.36,4.36,0,0,0-.51-.6l-.07-.06.09,0h0l.57-.3c.43-.23.87-.46,1.29-.7a10.34,10.34,0,0,0,1.31-.95l.19-.16c.24-.19.48-.39.71-.59a7,7,0,0,0,.73-.77l.23-.28,0,.15,0,.18,0,.34,0,.56c0,.56-.07,1.06-.14,1.56l-.1.76C60.79,45.82,60.59,46,60.38,46.16Zm-.27,24.73-.25.06a2,2,0,0,1-.34,0L59,71l-.56,0a4.14,4.14,0,0,1-.47-.06l-.31-.17-.1-.07-.29-.21a3.84,3.84,0,0,1-.24-.31h.18l.38,0h.18l.38,0,1,.07h.15l.49.1.31.05h.07a4,4,0,0,1,.44.08l.15.07.07.06C60.58,70.73,60.35,70.81,60.12,70.89Zm2.23-3.61a2.21,2.21,0,0,0-.14,1.26,1.79,1.79,0,0,0,.19.53l-.17,0H59.75l-.46,0-.17,0-.43-.1-.53-.11.07,0a1.29,1.29,0,0,0,.26-.34,1.58,1.58,0,0,0,.17-.6,1.81,1.81,0,0,0,0-.34,1.64,1.64,0,0,0,0-.29,1.72,1.72,0,0,0-.25-.77,1,1,0,0,0,.15-.35l0-.09c0-.15.05-.25.08-.36q.11-.46.25-.92a13.33,13.33,0,0,0,.38-1.88c0-.2.06-.37.1-.53l0-.12c0-.14.05-.29.07-.43s.07-.57.11-.85l0-.29c.06-.52.14-1.06.25-1.61l.25-.94c.09-.33.17-.66.26-1s.12-.57.17-.86v-.08l0-.15c.06-.37.12-.74.17-1.11s.08-.56.12-.82h0l.12-.61L61,53l.06-.3.17-.78c.12-.5.22-1,.32-1.51l0-.14.18-.78c.09-.39.17-.82.26-1.43l.49-.26.28-.15.09,0,.17-.09v.68c0,.3,0,.6,0,.9,0,.49,0,1-.06,1.48l0,.73c0,.71,0,1.4,0,2.22,0,.31,0,.61.05.92s.05.84.06,1.25,0,.68,0,1v.17c0,.35,0,.69,0,1s0,1,0,1.46v.66c0,.19,0,.39,0,.58,0,.51-.07,1-.1,1.53l0,.4c0,.39,0,.75,0,1.09s.06,1,.11,1.48c0,.23,0,.46.06.69a3.94,3.94,0,0,0,.11.77A1.28,1.28,0,0,0,62.35,67.28Zm.77-23.77c0,.23,0,.45,0,.68l-.09.05-.58.36.06-.67c0-.45.09-.9.14-1.35s.11-1,.17-1.57l.22-.15V41c0,.38,0,.77.06,1.15l0,.26v1.14Zm.85-4.7a.94.94,0,0,1-.05.14l-.14.08a1.31,1.31,0,0,0-.37-.26L63,38.57,63,38.5v-.13a3.93,3.93,0,0,1,.37-.4l.1,0,.2.11.2.18.05.07.07.21a1.4,1.4,0,0,1,0,.15A.32.32,0,0,1,64,38.81ZM68,69.69a.21.21,0,0,1,.14-.06l.09,0h0a.23.23,0,0,1,.19.13.26.26,0,0,1,0,.18.68.68,0,0,1-.21.32,3.79,3.79,0,0,1-.36.33,5,5,0,0,1-.56.4,4.63,4.63,0,0,1-.54.26l-.19.08-.06,0-.24.17a2,2,0,0,1-.38.25,2,2,0,0,1-.42.12L65,72H65l-.29,0a.54.54,0,0,1-.37,0,.24.24,0,0,1-.1-.2.23.23,0,0,1,.07-.16.8.8,0,0,1,.32-.14l.27-.07.31-.06.2,0,.86-.41.55-.23a2.47,2.47,0,0,0,.48-.25l.14-.12.12-.15A7.38,7.38,0,0,1,68,69.69ZM65.49,54.17c.19,1.12.4,2.23.65,3.49.13.71.28,1.42.44,2.13.05.29.09.59.14.88l0,.21c0,.17.05.33.08.5.1.57.2,1.14.3,1.71.06.3.1.61.14.92s.06.35.08.53l0,.26.06.35c0,.19.06.38.1.57a3.49,3.49,0,0,0,.09.35.44.44,0,0,0-.12.16,1.19,1.19,0,0,0-.37.34,1.71,1.71,0,0,0-.29.83,1.65,1.65,0,0,0,0,.28v.08a2,2,0,0,0,.08.43,2,2,0,0,0,.23.51h-.32a5.77,5.77,0,0,0-.76.14l-.26.06-.21,0-.48,0H65l.06-.11a2.18,2.18,0,0,0,.21-.66,1.39,1.39,0,0,0-.13-.7,1.35,1.35,0,0,0-.22-.33,1.28,1.28,0,0,0-.19-.18l-.06-.05a.6.6,0,0,0-.07-.21,3.86,3.86,0,0,0,0-.53c0-.37,0-.74,0-1.11s0-1,0-1.45l0-.38,0-.38c0-1.17,0-2.36,0-3.56,0-.3,0-.59,0-.89v-.53c0-.22,0-.44,0-.66s0-.43,0-.65v-.11l0-.37V56c0-.3,0-.61,0-.91,0-.66,0-1.33-.09-2l0-.26c0-.22,0-.45,0-.67l0-.44c0-.2,0-.4,0-.61l0-.41,0-.33c0-.29,0-.57,0-.84v-.35c0-.23,0-.46,0-.69s0-.53,0-.79v-.43c0,.39.11.79.17,1.18l.07.45c.11.66.24,1.32.37,2s.18,1,.25,1.49l0,.17Q65.34,53.34,65.49,54.17ZM70,35.39a4.19,4.19,0,0,0-.16.54c-.05.2-.09.4-.13.61l-.07.34c-.06.27-.11.55-.15.82l0,.12c0,.23-.06.47-.08.7v.09l0,.29a2.56,2.56,0,0,1-.06.36l-.09.18q-.25.35-.53.68a5.56,5.56,0,0,1-.61.63,15.9,15.9,0,0,1-1.62,1.16l-.29.18c-.18.11-.35.21-.52.34l-.38.28-.47.35c0-.29-.08-.52-.12-.75l-.09-.41-.11-.54L64.37,41l0-.13c0-.2-.06-.42-.08-.63a.63.63,0,0,0,.18,0,2.17,2.17,0,0,0,.34-.16L64.9,40l.26-.15a2.68,2.68,0,0,0,.68-.54,3.54,3.54,0,0,0,.46-.65l.06-.11.11-.21c.06-.1.11-.21.16-.32l0-.07a4.38,4.38,0,0,0,.29-.85l.06-.32,0-.14c0-.14,0-.27.07-.41s.06-.34.08-.51l0-.23,0-.23v0h0v0c0-.07,0-.13,0-.19l0,.08a3.51,3.51,0,0,1,0,.64c0,.15,0,.3,0,.45s0,.29,0,.43,0,.25-.06.38-.07.3-.1.45a2.14,2.14,0,0,0,0,.26.65.65,0,0,0,.16.47.5.5,0,0,0,.36.15.62.62,0,0,0,.39-.2.89.89,0,0,0,.1-.14,1.77,1.77,0,0,0,.12-.22l.11-.24c.06-.13.11-.26.16-.4a7.19,7.19,0,0,0,.3-1c.06-.3.11-.61.16-.91a5.22,5.22,0,0,0,.06-.53l.43.07.15.05.24.08.43.13A.78.78,0,0,0,70,35.39Zm1.1-15.25a3,3,0,0,0-.38,1.38,2.47,2.47,0,0,0,.7,1.76l0,.26c0,.4-.09.8-.16,1.2s-.15,1-.19,1.45,0,.7-.05,1v.23c0,.43-.05.85-.09,1.28,0,.25-.07.49-.12.74l0,.13c0,.2-.07.39-.1.59s0,.17,0,.25c-.08.28-.18.55-.29.82a5.28,5.28,0,0,1-.36.65,2.17,2.17,0,0,1-.23.22l-.16.11-.42,0c.15-1.25.28-2.51.44-3.76.1-.76.21-1.51.31-2.27s.18-1.56.26-2.34c.15-1.5.25-3,.35-4.52a5.12,5.12,0,0,1,.12-.55,2.37,2.37,0,0,0,.81.31l.29.07.09.12A2.73,2.73,0,0,0,71.07,20.14Zm2.43,1.93.14-.13,0,0a1.67,1.67,0,0,0,.19-.23,2,2,0,0,0,.17-.36,1.71,1.71,0,0,0,.07-.32,2,2,0,0,0,0-.29,1.2,1.2,0,0,0,0-.15,3,3,0,0,0-.24-.37.22.22,0,0,1,.06-.29.18.18,0,0,1,.1,0,.21.21,0,0,1,.17.1,1.75,1.75,0,0,1,.25.45,2.65,2.65,0,0,1,.08.35,2.19,2.19,0,0,1,.05.37,1.64,1.64,0,0,1,0,.39c0,.11-.05.22-.08.33a1.3,1.3,0,0,1-.16.32,1,1,0,0,1-.14.15,1.55,1.55,0,0,1-.22.18.27.27,0,0,1-.39-.09A.32.32,0,0,1,73.5,22.07Zm1.33,11.71a.16.16,0,0,1-.24,0h0l-.06,0-.19-.14-.15-.13h0l-.08-.06a1,1,0,0,1-.16-.13l-.14-.16a1.35,1.35,0,0,0-.22-.22l-.16-.09-.2-.15a1.52,1.52,0,0,1-.32-.36,1.88,1.88,0,0,1-.25-.88,6.27,6.27,0,0,1,.07-.83,6.23,6.23,0,0,0,0-.65c0-.24,0-.49,0-.73s0-.52,0-.78,0-.43-.05-.64a5.23,5.23,0,0,1,.12-1.43c0-.09,0-.18.06-.27l0-.3c0-.18.07-.36.09-.55s0-.19,0-.29a.36.36,0,0,1,.33-.38h0a.36.36,0,0,1,.34.35c0,.33,0,.65,0,1s0,.51,0,.76,0,.31,0,.46,0,.27,0,.41,0,.55,0,.83-.05.65,0,1,0,.6,0,.89,0,.51,0,.76,0,.52,0,.78a3,3,0,0,0,0,.41,1.07,1.07,0,0,0,.06.17,2.77,2.77,0,0,0,.32.52,1.49,1.49,0,0,0,.24.25l.07.05,0,0,.16.12.11.1.16.12h0l0,0A.19.19,0,0,1,74.84,33.78Zm5.36,3.65a3.05,3.05,0,0,1,.2-.5l.14-.2.08-.08a1.19,1.19,0,0,0,.59.43.89.89,0,0,0,.27,0h.11a1.13,1.13,0,0,0,.25-.07c.1.07.2.14.3.23l.17.22a2.93,2.93,0,0,1,.16.39,4.61,4.61,0,0,1,.06.54,5.74,5.74,0,0,1-.15,1.15.53.53,0,0,0-.21-.09l-.4-.07-.09,0-.11,0-.08,0h-.08l-.17,0h-.16l-.31,0a.62.62,0,0,0-.19-.06h0a.54.54,0,0,0-.33.09v-.06l-.05-.45c0-.29-.06-.59-.07-.88A3.19,3.19,0,0,1,80.2,37.43ZM76.88,71.78a3.6,3.6,0,0,1-.46.08l-.4,0a5.21,5.21,0,0,1-1.15-.13l-.11-.09c-.13-.14-.27-.28-.39-.42l-.07-.08a3.13,3.13,0,0,1-.28-.34,2.85,2.85,0,0,1-.2-.46,3.63,3.63,0,0,0,.6.3,3.81,3.81,0,0,0,.92.26l.24,0c.49.08,1,.15,1.49.2h.13l.85.08A6.28,6.28,0,0,1,76.88,71.78Zm4.54-26c0,.27-.05.53-.09.8l0,.33c-.06.51-.09,1-.12,1.53,0,.24,0,.49-.05.73l-.06.76c0,.5-.09,1-.12,1.51,0,.76-.06,1.54-.06,2.26s0,1.16,0,1.73v.69c0,.73,0,1.46,0,2.19,0,.54,0,1.08-.06,1.63l0,.73c0,.56,0,1.12,0,1.68V63c0,.5,0,1,0,1.51s0,1.15,0,1.72,0,1.05-.06,1.58a1.44,1.44,0,0,0-.43.29,1.52,1.52,0,0,0-.44.83,2.16,2.16,0,0,0,0,1,1.47,1.47,0,0,0,.11.28l-.15,0-1.15-.06h-.76l-.91,0h-.1l-.62,0-.73-.12a.26.26,0,0,0,.08-.07,1.55,1.55,0,0,0,.32-.72,2.18,2.18,0,0,0,0-.66,2.28,2.28,0,0,0-.18-.64,1.9,1.9,0,0,0-.3-.5,2.21,2.21,0,0,0,.14-.43h0l.07-.28,0-.17c.07-.28.13-.55.19-.83s.16-.85.23-1.27c.15-.9.33-1.78.53-2.62.15-.6.31-1.19.47-1.78.24-.88.47-1.73.66-2.58.1-.43.19-.86.28-1.29l.09-.41.11-.52c.09-.39.16-.79.23-1.19s.12-.68.19-1c.1-.51.22-1,.35-1.52l.16-.69c.11-.48.21-1,.32-1.43l.06-.28.11-.51c.14-.66.27-1.39.4-2.23.06-.37.11-.74.18-1.11s.11-.49.17-.74l.08-.33c.09-.39.18-.77.26-1.16l.07,0a1,1,0,0,0,.39.07l.23,0V43c0,.42,0,.8,0,1.18v.71C81.46,45.19,81.45,45.49,81.42,45.76Zm0-4h-.07l-.25-.11a4.33,4.33,0,0,1-.64-.45,1.73,1.73,0,0,1,0-.21c0-.07,0-.14,0-.21a2,2,0,0,1,.08-.23l.05-.09h0l.14-.12.15-.07a.58.58,0,0,0,.29.31l.21.12.17.12.09.11,0,.08a.7.7,0,0,1-.05.56A.65.65,0,0,0,81.43,41.72Zm.84,28.36a1.79,1.79,0,0,0,.13-.64s0-.09,0-.14,0-.12,0-.18a1.46,1.46,0,0,0,0-.38,2.53,2.53,0,0,0-.13-.42,1,1,0,0,0-.18-.28L82,68l-.2-.18-.12-.07.05-.32c.07-.49.14-1,.18-1.47s.12-1.4.15-2.19,0-1.47,0-2.2c0-.52,0-1,0-1.55l0-.79c0-1.15,0-2.31,0-3.46V52.31c0-.39,0-.77,0-1.16s0-.77,0-1.16V48.51l0,.13c.15.79.26,1.54.35,2.29.05.41.09.83.13,1.24s.06.62.09.93l0,.38c0,.26.06.52.08.78l.06.58.06.58c0,.41.09.81.14,1.21l0,.31c0,.26.07.53.09.79l0,.13,0,.15c0,.51.08,1,.11,1.52l0,.58c.05.76.11,1.52.19,2.29S83.84,64,84,64.7s.26,1.47.41,2.2c.08.37.16.74.26,1.11a.94.94,0,0,1-.11.19,1.26,1.26,0,0,0-.22.5,1.42,1.42,0,0,0-.07.62c0,.12,0,.23,0,.35a1,1,0,0,0,.06.19l.05.13c-.55.06-1.13.11-1.8.15a.47.47,0,0,0-.21-.06h-.1Zm3.91,1.46a7.69,7.69,0,0,1-.72.65,2.63,2.63,0,0,1-.46.28l-.4.18-.86.38-.48.17-.19.1a2,2,0,0,1-.36.17.27.27,0,0,1-.23,0,.33.33,0,0,1,0-.56,1.84,1.84,0,0,1,.38-.15l.2-.06c.28-.11.54-.27.81-.4l.57-.3a5.32,5.32,0,0,0,.55-.35A8.55,8.55,0,0,0,85.7,71a.33.33,0,0,1,.24-.1.34.34,0,0,1,.26.12A.39.39,0,0,1,86.18,71.54Z"/><polygon class="cls-1" points="76.02 13.34 76.01 13.33 76.02 13.34 76.02 13.34"/><path class="cls-1" d="M51.61,83.42a.51.51,0,0,0-.25-.33l-.13,0-.09,0a.38.38,0,0,0-.15.12.79.79,0,0,0-.11.2l0,.08c-.09.17-.18.34-.27.51s-.16.24-.23.34a2,2,0,0,1-.26.28,7.86,7.86,0,0,1-.64.54l-.16.11-.14.1-.09.07c-.14.1-.29.2-.44.29a1.33,1.33,0,0,1-.24.11h-.26c-.35,0-.7-.09-1-.15h0a.22.22,0,0,0-.24.17.23.23,0,0,0,.15.26.34.34,0,0,0,.17.39,1.68,1.68,0,0,0,.28.11l.17,0,.09,0,.07,0,.32.08.16.09.19.16.14.23a2,2,0,0,1,.07.25c0,.11,0,.18,0,.26a2.63,2.63,0,0,1,0,.35c0,.07,0,.13,0,.2a1.36,1.36,0,0,1,0,.18,2.05,2.05,0,0,1-.13.28,2.44,2.44,0,0,1-.22.27l-.19.16-.18.12-.06,0-.46.27-.13.06-.09.05h0L47,89.8a.43.43,0,0,0-.17.27.45.45,0,0,0,.33.52h.16a2.06,2.06,0,0,0,.33,0l.62-.1a3.52,3.52,0,0,0,1.11-.36,3.41,3.41,0,0,0,.38-.24,4.21,4.21,0,0,0,.49-.42c.21-.21.42-.44.67-.74a3.25,3.25,0,0,0,.23-.32l.05-.08a5.35,5.35,0,0,0,.33-.58,3.38,3.38,0,0,0,.19-.52,3.29,3.29,0,0,0,.13-.58,8,8,0,0,0-.07-2.24c0-.24-.07-.46-.11-.67A2.21,2.21,0,0,0,51.61,83.42Z"/><path class="cls-1" d="M73.45,12.32h0Z"/><path class="cls-1" d="M39.64,85.5l-.06-.05L39.16,85l-.36-.35c-.33-.31-.6-.58-.86-.87l-.11-.13c-.09-.11-.18-.21-.27-.31a7,7,0,0,0-.52-.47l-.31-.25-.16-.12-.13-.11-.13-.11,0,0h0l-.06,0a.45.45,0,0,0-.27-.08.48.48,0,0,0-.41.23.55.55,0,0,0-.07.34l-.06.13a3.16,3.16,0,0,0-.14.73c0,.16,0,.33,0,.49,0,.33,0,.65,0,1s0,.64-.06,1,0,.65,0,1a17,17,0,0,0,.22,2.16,13.29,13.29,0,0,0,.35,1.54c0,.25,0,.49,0,.74v.32c0,.26,0,.51,0,.77a3.58,3.58,0,0,0,0,.53,1.46,1.46,0,0,0,.24.64.45.45,0,0,0,.33.16h.09a.5.5,0,0,0,.23-.11.63.63,0,0,0,.15-.24,2.89,2.89,0,0,0,.13-.4l.07-.25.07-.25,0-.09c.1-.33.19-.66.27-1l.07-.3a7.15,7.15,0,0,1,.21-.84c.13-.39.3-.77.46-1.12l.31-.69c.09-.19.14-.33.2-.46l.11-.26a3.57,3.57,0,0,1,.38-.63,5,5,0,0,1,.56-.48l.12-.1a.74.74,0,0,0,.25-.31.51.51,0,0,0,0-.42A1.59,1.59,0,0,0,39.64,85.5Z"/><path class="cls-1" d="M76,13.3h0v0Z"/><polygon class="cls-1" points="73.44 12.32 73.44 12.32 73.45 12.32 73.44 12.32"/><path class="cls-1" d="M48.52,39H47.6a.46.46,0,0,0-.18.06.37.37,0,0,0-.23,0,.42.42,0,0,0-.19.26.47.47,0,0,0,0,.33.39.39,0,0,0,.25.2,1.5,1.5,0,0,0,.35,0l.16,0,.35-.06a.84.84,0,0,0,.34-.2.76.76,0,0,0,.18-.29.32.32,0,0,0,0-.14A.23.23,0,0,0,48.52,39Z"/><polygon class="cls-1" points="73.44 12.33 73.44 12.32 73.44 12.32 73.44 12.33 73.44 12.33"/><polygon class="cls-1" points="73.44 12.32 73.44 12.32 73.44 12.32 73.44 12.32"/><path class="cls-1" d="M73.44,12.32h0Z"/><polygon class="cls-1" points="64.47 72.06 64.47 72.06 64.47 72.06 64.47 72.06"/><path class="cls-1" d="M73.69,21.9l0,0h0Z"/><polygon class="cls-1" points="64.54 71.64 64.55 71.64 64.54 71.64 64.54 71.64"/><path class="cls-1" d="M73.65,21.93h0Z"/><path class="cls-1" d="M45.87,98.25a.21.21,0,0,0-.19.11,1.83,1.83,0,0,0-.12.36c0,.14-.08.28-.12.41-.09.29-.19.57-.3.86-.2.53-.42,1.05-.65,1.57v0l0,0,0,0v0l-.44.92c-.17.35-.31.7-.47,1.06-.29.69-.61,1.36-.87,2.06-.12.31-.24.62-.37.93a5.66,5.66,0,0,0-.32.95,3.76,3.76,0,0,0-.1,1.12,10.3,10.3,0,0,0,.09,1.17,11.26,11.26,0,0,0,.25,1.21v.11c0,.17,0,.33.05.5a1.83,1.83,0,0,0,.09.4,1.12,1.12,0,0,0,.15.26h0l.12.55a3.59,3.59,0,0,0,.1.5.54.54,0,0,0,.31.32.67.67,0,0,0,.51-.06,1.24,1.24,0,0,0,.23-.16l.16-.16a3.79,3.79,0,0,0,.36-.47,1.88,1.88,0,0,0,.24-.54,2.12,2.12,0,0,0,.06-.58c0-.38,0-.75,0-1.12s.07-.78.12-1.16c.1-.81.3-1.61.33-2.43a12.85,12.85,0,0,0,0-1.39c0-.22-.05-.43-.08-.64s0-.16,0-.24v0c0-.36,0-.72,0-1.07s0-.63,0-.95c0-.14,0-.29,0-.43l.23-.74a.25.25,0,0,0,0-.14l.17-.49c.14-.41.26-.83.38-1.24l.09-.29c.07-.24.12-.49.18-.73a.26.26,0,0,0-.09-.28A.22.22,0,0,0,45.87,98.25Zm-2.46,14.26,0-.09.1,0Z"/><polygon class="cls-1" points="44.5 101.56 44.49 101.57 44.49 101.56 44.5 101.56"/><text class="cls-2" transform="translate(96.15 83.74) scale(1.05 1)">EMAJ</text><text class="cls-3" transform="translate(95.17 102.51) scale(1.05 1)">ESCRITÓRIO MODELO DE<tspan x="0" y="15.6">ASSISTÊNCIA JURÍDICA</tspan></text></svg>